solid cn_rr2_rr2_sh1_w25_ZUp
   facet normal -1.000000e+000 0.000000e+000 0.000000e+000
      outer loop
         vertex -1.000000e+001 -2.500000e+000 1.500000e+001
         vertex -1.000000e+001 2.500000e+000 1.500000e+001
         vertex -1.000000e+001 -2.500000e+000 0.000000e+000
      endloop
   endfacet
   facet normal -1.000000e+000 0.000000e+000 0.000000e+000
      outer loop
         vertex -1.000000e+001 -2.500000e+000 0.000000e+000
         vertex -1.000000e+001 2.500000e+000 1.500000e+001
         vertex -1.000000e+001 2.500000e+000 0.000000e+000
      endloop
   endfacet
   facet normal 1.776357e-016 -1.000000e+000 0.000000e+000
      outer loop
         vertex -7.500000e+000 -2.500000e+000 1.500000e+001
         vertex -1.000000e+001 -2.500000e+000 1.500000e+001
         vertex -7.500000e+000 -2.500000e+000 0.000000e+000
      endloop
   endfacet
   facet normal 1.776357e-016 -1.000000e+000 0.000000e+000
      outer loop
         vertex -7.500000e+000 -2.500000e+000 0.000000e+000
         vertex -1.000000e+001 -2.500000e+000 1.500000e+001
         vertex -1.000000e+001 -2.500000e+000 0.000000e+000
      endloop
   endfacet
   facet normal 1.000000e+000 3.552714e-016 0.000000e+000
      outer loop
         vertex -7.500000e+000 2.500000e+000 1.500000e+001
         vertex -7.500000e+000 -2.500000e+000 1.500000e+001
         vertex -7.500000e+000 2.500000e+000 0.000000e+000
      endloop
   endfacet
   facet normal 1.000000e+000 3.552714e-016 0.000000e+000
      outer loop
         vertex -7.500000e+000 2.500000e+000 0.000000e+000
         vertex -7.500000e+000 -2.500000e+000 1.500000e+001
         vertex -7.500000e+000 -2.500000e+000 0.000000e+000
      endloop
   endfacet
   facet normal -5.329071e-016 1.000000e+000 0.000000e+000
      outer loop
         vertex -1.000000e+001 2.500000e+000 1.500000e+001
         vertex -7.500000e+000 2.500000e+000 1.500000e+001
         vertex -1.000000e+001 2.500000e+000 0.000000e+000
      endloop
   endfacet
   facet normal -5.329071e-016 1.000000e+000 0.000000e+000
      outer loop
         vertex -1.000000e+001 2.500000e+000 0.000000e+000
         vertex -7.500000e+000 2.500000e+000 1.500000e+001
         vertex -7.500000e+000 2.500000e+000 0.000000e+000
      endloop
   endfacet
   facet normal 0.000000e+000 0.000000e+000 1.000000e+000
      outer loop
         vertex -7.500000e+000 -2.500000e+000 1.500000e+001
         vertex -7.500000e+000 2.500000e+000 1.500000e+001
         vertex -1.000000e+001 -2.500000e+000 1.500000e+001
      endloop
   endfacet
   facet normal 0.000000e+000 0.000000e+000 1.000000e+000
      outer loop
         vertex -1.000000e+001 -2.500000e+000 1.500000e+001
         vertex -7.500000e+000 2.500000e+000 1.500000e+001
         vertex -1.000000e+001 2.500000e+000 1.500000e+001
      endloop
   endfacet
   facet normal 0.000000e+000 0.000000e+000 -1.000000e+000
      outer loop
         vertex -7.500000e+000 2.500000e+000 0.000000e+000
         vertex -7.500000e+000 -2.500000e+000 0.000000e+000
         vertex -1.000000e+001 2.500000e+000 0.000000e+000
      endloop
   endfacet
   facet normal 0.000000e+000 0.000000e+000 -1.000000e+000
      outer loop
         vertex -1.000000e+001 2.500000e+000 0.000000e+000
         vertex -7.500000e+000 -2.500000e+000 0.000000e+000
         vertex -1.000000e+001 -2.500000e+000 0.000000e+000
      endloop
   endfacet
   facet normal -1.000000e+000 -3.552714e-016 0.000000e+000
      outer loop
         vertex 7.500000e+000 -2.500000e+000 1.500000e+001
         vertex 7.500000e+000 2.500000e+000 1.500000e+001
         vertex 7.500000e+000 -2.500000e+000 0.000000e+000
      endloop
   endfacet
   facet normal -1.000000e+000 -3.552714e-016 0.000000e+000
      outer loop
         vertex 7.500000e+000 -2.500000e+000 0.000000e+000
         vertex 7.500000e+000 2.500000e+000 1.500000e+001
         vertex 7.500000e+000 2.500000e+000 0.000000e+000
      endloop
   endfacet
   facet normal 1.776357e-016 -1.000000e+000 0.000000e+000
      outer loop
         vertex 1.000000e+001 -2.500000e+000 1.500000e+001
         vertex 7.500000e+000 -2.500000e+000 1.500000e+001
         vertex 1.000000e+001 -2.500000e+000 0.000000e+000
      endloop
   endfacet
   facet normal 1.776357e-016 -1.000000e+000 0.000000e+000
      outer loop
         vertex 1.000000e+001 -2.500000e+000 0.000000e+000
         vertex 7.500000e+000 -2.500000e+000 1.500000e+001
         vertex 7.500000e+000 -2.500000e+000 0.000000e+000
      endloop
   endfacet
   facet normal 1.000000e+000 0.000000e+000 0.000000e+000
      outer loop
         vertex 1.000000e+001 2.500000e+000 1.500000e+001
         vertex 1.000000e+001 -2.500000e+000 1.500000e+001
         vertex 1.000000e+001 2.500000e+000 0.000000e+000
      endloop
   endfacet
   facet normal 1.000000e+000 0.000000e+000 0.000000e+000
      outer loop
         vertex 1.000000e+001 2.500000e+000 0.000000e+000
         vertex 1.000000e+001 -2.500000e+000 1.500000e+001
         vertex 1.000000e+001 -2.500000e+000 0.000000e+000
      endloop
   endfacet
   facet normal -1.776357e-016 1.000000e+000 0.000000e+000
      outer loop
         vertex 7.500000e+000 2.500000e+000 1.500000e+001
         vertex 1.000000e+001 2.500000e+000 1.500000e+001
         vertex 7.500000e+000 2.500000e+000 0.000000e+000
      endloop
   endfacet
   facet normal -1.776357e-016 1.000000e+000 0.000000e+000
      outer loop
         vertex 7.500000e+000 2.500000e+000 0.000000e+000
         vertex 1.000000e+001 2.500000e+000 1.500000e+001
         vertex 1.000000e+001 2.500000e+000 0.000000e+000
      endloop
   endfacet
   facet normal 0.000000e+000 0.000000e+000 1.000000e+000
      outer loop
         vertex 1.000000e+001 -2.500000e+000 1.500000e+001
         vertex 1.000000e+001 2.500000e+000 1.500000e+001
         vertex 7.500000e+000 -2.500000e+000 1.500000e+001
      endloop
   endfacet
   facet normal 0.000000e+000 0.000000e+000 1.000000e+000
      outer loop
         vertex 7.500000e+000 -2.500000e+000 1.500000e+001
         vertex 1.000000e+001 2.500000e+000 1.500000e+001
         vertex 7.500000e+000 2.500000e+000 1.500000e+001
      endloop
   endfacet
   facet normal 0.000000e+000 0.000000e+000 -1.000000e+000
      outer loop
         vertex 1.000000e+001 2.500000e+000 0.000000e+000
         vertex 1.000000e+001 -2.500000e+000 0.000000e+000
         vertex 7.500000e+000 2.500000e+000 0.000000e+000
      endloop
   endfacet
   facet normal 0.000000e+000 0.000000e+000 -1.000000e+000
      outer loop
         vertex 7.500000e+000 2.500000e+000 0.000000e+000
         vertex 1.000000e+001 -2.500000e+000 0.000000e+000
         vertex 7.500000e+000 -2.500000e+000 0.000000e+000
      endloop
   endfacet
endsolid