solid 112_highrise_new
   facet normal -1.000000e+000 -6.938894e-016 0.000000e+000
      outer loop
         vertex -2.000000e-002 -2.000000e-002 8.000000e-002
         vertex -2.000000e-002 2.000000e-002 8.000000e-002
         vertex -2.000000e-002 -2.000000e-002 0.000000e+000
      endloop
   endfacet
   facet normal -1.000000e+000 -6.938894e-016 0.000000e+000
      outer loop
         vertex -2.000000e-002 -2.000000e-002 0.000000e+000
         vertex -2.000000e-002 2.000000e-002 8.000000e-002
         vertex -2.000000e-002 2.000000e-002 0.000000e+000
      endloop
   endfacet
   facet normal 0.000000e+000 -1.000000e+000 0.000000e+000
      outer loop
         vertex 2.000000e-002 -2.000000e-002 8.000000e-002
         vertex -2.000000e-002 -2.000000e-002 8.000000e-002
         vertex 2.000000e-002 -2.000000e-002 0.000000e+000
      endloop
   endfacet
   facet normal 0.000000e+000 -1.000000e+000 0.000000e+000
      outer loop
         vertex 2.000000e-002 -2.000000e-002 0.000000e+000
         vertex -2.000000e-002 -2.000000e-002 8.000000e-002
         vertex -2.000000e-002 -2.000000e-002 0.000000e+000
      endloop
   endfacet
   facet normal 1.000000e+000 5.204170e-016 0.000000e+000
      outer loop
         vertex 2.000000e-002 2.000000e-002 8.000000e-002
         vertex 2.000000e-002 -2.000000e-002 8.000000e-002
         vertex 2.000000e-002 2.000000e-002 0.000000e+000
      endloop
   endfacet
   facet normal 1.000000e+000 5.204170e-016 0.000000e+000
      outer loop
         vertex 2.000000e-002 2.000000e-002 0.000000e+000
         vertex 2.000000e-002 -2.000000e-002 8.000000e-002
         vertex 2.000000e-002 -2.000000e-002 0.000000e+000
      endloop
   endfacet
   facet normal 0.000000e+000 1.000000e+000 0.000000e+000
      outer loop
         vertex -2.000000e-002 2.000000e-002 8.000000e-002
         vertex 2.000000e-002 2.000000e-002 8.000000e-002
         vertex -2.000000e-002 2.000000e-002 0.000000e+000
      endloop
   endfacet
   facet normal 0.000000e+000 1.000000e+000 0.000000e+000
      outer loop
         vertex -2.000000e-002 2.000000e-002 0.000000e+000
         vertex 2.000000e-002 2.000000e-002 8.000000e-002
         vertex 2.000000e-002 2.000000e-002 0.000000e+000
      endloop
   endfacet
   facet normal 0.000000e+000 0.000000e+000 1.000000e+000
      outer loop
         vertex 2.000000e-002 -2.000000e-002 8.000000e-002
         vertex 2.000000e-002 2.000000e-002 8.000000e-002
         vertex -2.000000e-002 -2.000000e-002 8.000000e-002
      endloop
   endfacet
   facet normal 0.000000e+000 0.000000e+000 1.000000e+000
      outer loop
         vertex -2.000000e-002 -2.000000e-002 8.000000e-002
         vertex 2.000000e-002 2.000000e-002 8.000000e-002
         vertex -2.000000e-002 2.000000e-002 8.000000e-002
      endloop
   endfacet
   facet normal 0.000000e+000 0.000000e+000 -1.000000e+000
      outer loop
         vertex 2.000000e-002 2.000000e-002 0.000000e+000
         vertex 2.000000e-002 -2.000000e-002 0.000000e+000
         vertex -2.000000e-002 2.000000e-002 0.000000e+000
      endloop
   endfacet
   facet normal 0.000000e+000 0.000000e+000 -1.000000e+000
      outer loop
         vertex -2.000000e-002 2.000000e-002 0.000000e+000
         vertex 2.000000e-002 -2.000000e-002 0.000000e+000
         vertex -2.000000e-002 -2.000000e-002 0.000000e+000
      endloop
   endfacet
endsolid