solid sb_L25_H15_A0_zUP
   facet normal -1.000000e+000 -6.217249e-016 0.000000e+000
      outer loop
         vertex -1.250000e+000 -1.250000e+000 1.500000e+001
         vertex -1.250000e+000 1.250000e+000 1.500000e+001
         vertex -1.250000e+000 -1.250000e+000 0.000000e+000
      endloop
   endfacet
   facet normal -1.000000e+000 -6.217249e-016 0.000000e+000
      outer loop
         vertex -1.250000e+000 -1.250000e+000 0.000000e+000
         vertex -1.250000e+000 1.250000e+000 1.500000e+001
         vertex -1.250000e+000 1.250000e+000 0.000000e+000
      endloop
   endfacet
   facet normal 4.440892e-016 -1.000000e+000 0.000000e+000
      outer loop
         vertex 1.250000e+000 -1.250000e+000 1.500000e+001
         vertex -1.250000e+000 -1.250000e+000 1.500000e+001
         vertex 1.250000e+000 -1.250000e+000 0.000000e+000
      endloop
   endfacet
   facet normal 4.440892e-016 -1.000000e+000 0.000000e+000
      outer loop
         vertex 1.250000e+000 -1.250000e+000 0.000000e+000
         vertex -1.250000e+000 -1.250000e+000 1.500000e+001
         vertex -1.250000e+000 -1.250000e+000 0.000000e+000
      endloop
   endfacet
   facet normal 1.000000e+000 5.329071e-016 0.000000e+000
      outer loop
         vertex 1.250000e+000 1.250000e+000 1.500000e+001
         vertex 1.250000e+000 -1.250000e+000 1.500000e+001
         vertex 1.250000e+000 1.250000e+000 0.000000e+000
      endloop
   endfacet
   facet normal 1.000000e+000 5.329071e-016 0.000000e+000
      outer loop
         vertex 1.250000e+000 1.250000e+000 0.000000e+000
         vertex 1.250000e+000 -1.250000e+000 1.500000e+001
         vertex 1.250000e+000 -1.250000e+000 0.000000e+000
      endloop
   endfacet
   facet normal -3.552714e-016 1.000000e+000 0.000000e+000
      outer loop
         vertex -1.250000e+000 1.250000e+000 1.500000e+001
         vertex 1.250000e+000 1.250000e+000 1.500000e+001
         vertex -1.250000e+000 1.250000e+000 0.000000e+000
      endloop
   endfacet
   facet normal -3.552714e-016 1.000000e+000 0.000000e+000
      outer loop
         vertex -1.250000e+000 1.250000e+000 0.000000e+000
         vertex 1.250000e+000 1.250000e+000 1.500000e+001
         vertex 1.250000e+000 1.250000e+000 0.000000e+000
      endloop
   endfacet
   facet normal 0.000000e+000 0.000000e+000 1.000000e+000
      outer loop
         vertex 1.250000e+000 -1.250000e+000 1.500000e+001
         vertex 1.250000e+000 1.250000e+000 1.500000e+001
         vertex -1.250000e+000 -1.250000e+000 1.500000e+001
      endloop
   endfacet
   facet normal 0.000000e+000 0.000000e+000 1.000000e+000
      outer loop
         vertex -1.250000e+000 -1.250000e+000 1.500000e+001
         vertex 1.250000e+000 1.250000e+000 1.500000e+001
         vertex -1.250000e+000 1.250000e+000 1.500000e+001
      endloop
   endfacet
   facet normal 0.000000e+000 0.000000e+000 -1.000000e+000
      outer loop
         vertex 1.250000e+000 1.250000e+000 0.000000e+000
         vertex 1.250000e+000 -1.250000e+000 0.000000e+000
         vertex -1.250000e+000 1.250000e+000 0.000000e+000
      endloop
   endfacet
   facet normal 0.000000e+000 0.000000e+000 -1.000000e+000
      outer loop
         vertex -1.250000e+000 1.250000e+000 0.000000e+000
         vertex 1.250000e+000 -1.250000e+000 0.000000e+000
         vertex -1.250000e+000 -1.250000e+000 0.000000e+000
      endloop
   endfacet
endsolid